<svg width="32" height="32" viewBox="0 0 32 32" fill="none" xmlns="http://www.w3.org/2000/svg">
  <defs>
    <linearGradient id="gradient" x1="0%" y1="0%" x2="100%" y2="100%">
      <stop offset="0%" style="stop-color:#be3e95;stop-opacity:1" />
      <stop offset="100%" style="stop-color:#6d63d2;stop-opacity:1" />
    </linearGradient>
  </defs>
  <rect width="32" height="32" rx="6" fill="url(#gradient)"/>
  <path d="M16 6C14.5 6 13.5 7 13.5 8.5C13.5 10 14.5 11 16 11C17.5 11 18.5 10 18.5 8.5C18.5 7 17.5 6 16 6Z" fill="white"/>
  <path d="M16 11C14 11 12 12.5 12 15V17C12 17.5 12.5 18 13 18C13.5 18 14 17.5 14 17V15C14 13.5 15 13 16 13C17 13 18 13.5 18 15V17C18 17.5 18.5 18 19 18C19.5 18 20 17.5 20 17V15C20 12.5 18 11 16 11Z" fill="white"/>
  <path d="M8 20C7.5 20 7 20.5 7 21C7 21.5 7.5 22 8 22H24C24.5 22 25 21.5 25 21C25 20.5 24.5 20 24 20H8Z" fill="white"/>
  <path d="M10 24C9.5 24 9 24.5 9 25C9 25.5 9.5 26 10 26H22C22.5 26 23 25.5 23 25C23 24.5 22.5 24 22 24H10Z" fill="white"/>
</svg>